<svg width="471" height="82" viewBox="0 0 471 82" xmlns="http://www.w3.org/2000/svg"><g fill="none" fill-rule="evenodd"><g fill-rule="nonzero"><path d="M81.717 34.159h-9.899a1.97 1.97 0 00-2.194 2.15v.985a1.97 1.97 0 002.194 2.15h5.42v4.838c-1.698.84-3.57 1.27-5.465 1.254a9.635 9.635 0 01-10.078-9.989 9.726 9.726 0 019.765-9.988c2.05-.096 4.09.352 5.912 1.299 1.254.582 2.195.493 3.001-.627l1.12-1.434a1.898 1.898 0 00-.537-3 18.036 18.036 0 00-9.496-2.42c-9.81 0-16.887 7.347-16.887 16.215 0 8.78 6.943 16.126 17.066 16.126a18.053 18.053 0 0010.884-3.629 3.097 3.097 0 001.389-2.732V36.31a1.97 1.97 0 00-2.195-2.15zM99.95 27.709c-7.301 0-12.766 5.375-12.766 12.004 0 6.674 5.465 12.005 12.766 12.005s12.766-5.376 12.766-12.005c0-6.629-5.465-12.004-12.766-12.004zm0 18.41a6.386 6.386 0 116.182-6.361 6.179 6.179 0 01-6.182 6.36z" fill="#53565A"/><path d="M133.77 23.722V22.02a1.97 1.97 0 00-2.195-2.15h-21.41a1.937 1.937 0 00-2.15 2.15v1.702a1.938 1.938 0 002.15 2.15h7.166v23.203a1.938 1.938 0 002.15 2.15h2.687a1.937 1.937 0 002.15-2.15V25.873h7.257a1.971 1.971 0 002.195-2.15z" fill="#53565A"/><path d="M141.834 27.709c-7.302 0-12.766 5.375-12.766 12.004 0 6.674 5.464 12.005 12.766 12.005 7.3 0 12.766-5.376 12.766-12.005 0-6.629-5.465-12.004-12.766-12.004zm0 18.41a6.386 6.386 0 116.181-6.361 6.179 6.179 0 01-6.181 6.36zM190.927 19.87h-1.97a1.345 1.345 0 00-1.389.94l-10.974 25.398L165.62 20.81c-.187-.6-.763-.99-1.388-.94h-1.971a1.105 1.105 0 00-1.21 1.12l-2.732 28.98a1.052 1.052 0 001.164 1.254h1.12a1.183 1.183 0 001.3-1.12l2.194-25.083 10.705 24.859c.203.587.769.97 1.389.94h.807a1.342 1.342 0 001.343-.94l10.75-24.86 2.195 25.084a1.182 1.182 0 001.299 1.12h1.12a1.053 1.053 0 001.164-1.254l-2.732-28.98a1.106 1.106 0 00-1.21-1.12zM210.819 28.38a11.695 11.695 0 00-11.96 11.781c0 6.316 4.837 11.557 12.542 11.557 3.08.078 6.085-.955 8.465-2.912a1.204 1.204 0 00.27-1.881l-.36-.359a1.192 1.192 0 00-1.656-.134 10.832 10.832 0 01-6.72 2.24c-5.509 0-9.405-3.673-9.092-8.645h18.5c.805 0 1.298-.448 1.164-1.21-.583-7.166-5.689-10.436-11.153-10.436zm-8.197 9.004a8.358 8.358 0 018.286-5.957c3.09 0 6.585 1.344 7.615 5.957h-15.901zM237.427 28.38a11.696 11.696 0 00-11.96 11.781c0 6.316 4.838 11.557 12.542 11.557 3.08.078 6.085-.955 8.465-2.912a1.204 1.204 0 00.27-1.881l-.359-.359a1.192 1.192 0 00-1.657-.134 10.832 10.832 0 01-6.72 2.24c-5.508 0-9.405-3.673-9.092-8.645h18.5c.806 0 1.298-.448 1.164-1.21-.582-7.166-5.689-10.436-11.153-10.436zm-8.197 9.004a8.359 8.359 0 018.286-5.957c3.091 0 6.585 1.344 7.615 5.957H229.23zM271.875 28.873h-1.03a1.128 1.128 0 00-1.209 1.21v19.932a1.107 1.107 0 001.209 1.21h1.03a1.096 1.096 0 001.165-1.21V30.083a1.096 1.096 0 00-1.165-1.21zM271.338 18.885a2.532 2.532 0 102.463 2.553 2.45 2.45 0 00-2.463-2.553zM290.733 28.38a7.92 7.92 0 00-7.794 5.242v-3.54a1.108 1.108 0 00-1.21-1.209h-1.03a1.117 1.117 0 00-1.164 1.21v19.932a1.095 1.095 0 001.165 1.21h1.03a1.108 1.108 0 001.21-1.21v-9.63c.044-7.211 5.106-8.958 7.569-8.958 2.822 0 5.644 1.702 5.644 7.122v11.466a1.108 1.108 0 001.21 1.21h1.03a1.108 1.108 0 001.21-1.21V38.55c0-7.391-4.122-10.168-8.87-10.168zM326.03 28.873H325a1.095 1.095 0 00-1.164 1.21v3.225a9.78 9.78 0 00-8.779-4.927c-6.854 0-11.153 5.285-11.153 11.69 0 6.406 4.39 11.647 11.153 11.647a9.698 9.698 0 008.78-4.883v3.852c0 5.107-3.316 8.063-8.153 8.063-2.503.07-4.97-.618-7.077-1.971-.717-.493-1.255-.403-1.613.358l-.313.538a1.164 1.164 0 00.358 1.657 14.556 14.556 0 008.645 2.419c6.315 0 11.556-3.628 11.556-10.795V30.083a1.108 1.108 0 00-1.21-1.21zm-10.57 19.799c-5.15 0-8.152-3.897-8.152-8.6 0-4.704 2.956-8.645 8.107-8.645 5.062 0 8.466 3.717 8.466 8.644a8.187 8.187 0 01-8.421 8.6zM264.61 28.86h-6.499v-5.69a.957.957 0 00-1.075-1.032h-.582a1.026 1.026 0 00-1.121.986l-.671 5.737h-3.05a.64.64 0 00-.716.717v1.3a.622.622 0 00.717.717h3.049v13.182c0 5.05 2.851 6.438 5.743 6.438h3.086a1.108 1.108 0 001.21-1.209v-.628a1.096 1.096 0 00-1.21-1.165h-3.086c-1.21 0-2.294-.7-2.294-3.026V31.595h6.5a.64.64 0 00.716-.717v-1.3a.66.66 0 00-.717-.717z" fill="#53565A"/><path d="M42.34 39.423a6.648 6.648 0 00-7.289.26 1.33 1.33 0 01-1.436.075l-6.604-3.812a.166.166 0 010-.288l6.567-3.792a1.331 1.331 0 011.443.08 6.648 6.648 0 007.306.29 6.723 6.723 0 002.418-8.853 6.648 6.648 0 00-12.473 3.733 1.333 1.333 0 01-.654 1.275l-6.602 3.812a.166.166 0 01-.25-.144v-7.626a1.33 1.33 0 01.784-1.207 6.649 6.649 0 10-5.558 0c.476.214.783.686.786 1.207v7.626a.166.166 0 01-.25.144l-6.602-3.812a1.33 1.33 0 01-.654-1.273 6.647 6.647 0 10-2.75 4.83c.424-.31.99-.341 1.445-.082l6.567 3.792a.166.166 0 010 .288l-6.605 3.812a1.33 1.33 0 01-1.436-.075 6.648 6.648 0 00-7.288-.26A6.723 6.723 0 00.8 48.27a6.65 6.65 0 0012.471-3.772 1.333 1.333 0 01.653-1.284l6.604-3.813a.166.166 0 01.25.144v7.626a1.33 1.33 0 01-.784 1.207 6.649 6.649 0 105.558 0 1.333 1.333 0 01-.785-1.207v-7.626a.166.166 0 01.25-.144l6.603 3.813c.45.263.706.765.653 1.284a6.65 6.65 0 0012.472 3.772 6.723 6.723 0 00-2.406-8.846z" fill="#F68D2E"/><path d="M268.299 59.11a.107.107 0 01-.04.02c-.014.004-.031.01-.046.013-.015.011-.03.017-.04.026a.052.052 0 00-.022.034l.001.02.01.016c.004.015.011.03.02.042.011.011.018.025.03.039l.185.286a.52.52 0 01.051.092.05.05 0 01-.008.055l-.017.007c-.01 0-.021 0-.032.002a.109.109 0 01-.053 0c-.01-.002-.023-.007-.027-.007a.059.059 0 01-.03-.007.13.13 0 01-.043-.048.315.315 0 00-.04-.052l-.192-.313a.347.347 0 01-.045-.071.394.394 0 00-.059-.067.153.153 0 00-.045-.012l-.058-.003h-.028c-.017.006-.031.007-.042.011a.068.068 0 00-.032.017.2.2 0 00-.017.062v.395a.11.11 0 01-.008.06c-.002.01-.015.019-.03.026a.31.31 0 01-.1.009.121.121 0 01-.044-.014l-.018-.028-.003-.028v-.02a.127.127 0 01-.003-.04c0-.014.003-.028.003-.044v-1.094a.064.064 0 01.01-.044.063.063 0 01.04-.027l.013-.002h.34c.097 0 .184.002.252.008a.353.353 0 01.199.07.243.243 0 01.06.048.372.372 0 01.066.15l.007.06v.027a.111.111 0 010 .069.437.437 0 01-.013.068.299.299 0 01-.06.113.624.624 0 01-.092.077zm-.437-.092c.04 0 .077 0 .108-.002.04 0 .073-.006.103-.009a.777.777 0 00.083-.026.19.19 0 00.096-.133.143.143 0 00.007-.08.232.232 0 00-.02-.065.184.184 0 00-.07-.08.448.448 0 00-.115-.033 1.28 1.28 0 00-.137-.01h-.152l-.01.002a.022.022 0 01-.016.004.067.067 0 00-.042.028c-.007.007-.007.018-.009.024a.1.1 0 01-.005.024v.034a.083.083 0 00-.003.038v.156a.146.146 0 00.017.093.074.074 0 00.068.033c.034.002.066.002.097.002z" fill="#A7A8AA"/><path d="M267.905 60.436a1.342 1.342 0 110-2.685 1.342 1.342 0 010 2.685zm0-2.473a1.129 1.129 0 10.004 2.257 1.129 1.129 0 00-.004-2.257zM194.068 75.382v-1.329a.468.468 0 00-.105-.307.444.444 0 00-.258-.12 2.679 2.679 0 00-.418-.054 8.397 8.397 0 00-.464 0c-.168.01-.305.014-.414.014h-3.593a.6.6 0 01-.575-.266.92.92 0 01-.047-.238 2.397 2.397 0 01-.012-.273v-.206c0-.124-.017-.162-.013-.264.008-.1-.01-.242-.01-.347v-9.758a.643.643 0 00-.1-.38.402.402 0 00-.32-.154c-.14-.006-.286-.01-.44-.01h-1.732a.124.124 0 01-.08.01.142.142 0 00-.086.01.493.493 0 00-.325.205.653.653 0 00-.071.288c-.007.12-.012.244-.012.369v13.126a.55.55 0 00.083.319c.07.108.187.178.316.19.166.024.335.036.503.035h7.64a.474.474 0 00.304-.083.44.44 0 00.203-.228.533.533 0 00.034-.243c-.008-.093-.008-.196-.008-.306zM205.139 70.906v-.113a5.568 5.568 0 00-.2-1.378 3.01 3.01 0 00-.106-.347 13.03 13.03 0 01-.182-.54 2.108 2.108 0 00-.223-.48c-.099-.15-.188-.296-.277-.43a4.91 4.91 0 00-.297-.41 2.154 2.154 0 00-.402-.417 9.742 9.742 0 00-.456-.362 5.133 5.133 0 00-.846-.471 4.933 4.933 0 00-2.48-.51l-.075.002h-.197a.068.068 0 00-.022.005c-.12.004-.229.009-.335.02-.078 0-.156.006-.233.018l-.016.005a3.831 3.831 0 00-1.586.448c-.145.05-.285.11-.42.18a6.21 6.21 0 00-1.25 1.031 5.094 5.094 0 00-.878 1.398 2.917 2.917 0 00-.161.5c-.043.172-.092.35-.143.522a.545.545 0 00-.046.196c0 .026 0 .052-.002.08-.01.045-.017.093-.028.14a.528.528 0 00-.022.148 7.144 7.144 0 00-.057.742c-.003.044-.003.082-.003.117v.066c-.018.586.07 1.17.258 1.725.024.094.05.19.069.28.035.135.086.265.152.388.212.5.503.962.86 1.371.357.394.77.731 1.228 1.002.141.077.288.145.44.203.14.053.297.112.46.166.114.05.233.087.355.113a5.3 5.3 0 001.652.223 5.208 5.208 0 001.65-.225h.005c.175-.034.346-.085.51-.153a6.183 6.183 0 001.674-1.021c.485-.445.868-.99 1.122-1.597.07-.14.124-.287.164-.438.04-.156.088-.31.144-.461.003-.036.01-.07.016-.104.13-.5.193-1.016.184-1.532v-.1zm-3.064 1.513c-.027.14-.068.276-.122.407-.134.316-.32.607-.551.862-.24.245-.534.433-.858.547-.093.043-.205.052-.308.087-.09.025-.183.044-.276.057h-.114a1.24 1.24 0 01-.273.012 1.63 1.63 0 01-.175 0 .514.514 0 00-.128-.018 3.192 3.192 0 01-.516-.138 1.187 1.187 0 01-.318-.16 2.173 2.173 0 01-.742-.685 4.324 4.324 0 01-.375-.8 3.964 3.964 0 01-.265-1.578 4.36 4.36 0 01.198-1.41c.01-.057.026-.112.044-.166.11-.35.278-.677.499-.969.214-.285.5-.507.83-.645a.873.873 0 01.234-.095c.093-.018.185-.041.275-.07.048-.013.096-.023.145-.03.062-.006.044 0 .14-.01.122-.012.246-.003.366-.01.117-.008.235.002.349.03.094.028.183.05.264.073.084.018.166.042.246.071.318.133.6.34.821.603a3.8 3.8 0 01.528.909 2.066 2.066 0 01.103.388c.232.882.228 1.81-.01 2.69a.146.146 0 01-.01.048zM232.991 61.772a.467.467 0 00-.298-.081h-3.513a.488.488 0 00-.317.1.558.558 0 00-.224.266c-.042.111-.08.22-.12.328-.073.219-.138.435-.206.643-.073.21-.135.425-.205.644-.272.846-.545 1.687-.82 2.523-.272.839-.544 1.673-.816 2.503-.11.316-.206.624-.295.932-.09.307-.19.615-.295.929-.044.11-.085.232-.127.368a.458.458 0 01-.07.147c-.067.135-.147.206-.228.206-.148 0-.283-.262-.383-.682a6.82 6.82 0 01-.216-.652 8.995 8.995 0 00-.284-.839 53.438 53.438 0 01-.911-2.634 69.933 69.933 0 00-.89-2.619c-.08-.226-.158-.459-.231-.682a37.944 37.944 0 00-.238-.664 10.595 10.595 0 01-.122-.379.567.567 0 00-.202-.296.84.84 0 00-.522-.142h-3.346a.117.117 0 01-.08.009.128.128 0 00-.081.01.495.495 0 00-.328.205.876.876 0 00-.058.238 1.85 1.85 0 00-.022.313v12.896c-.001.148.006.295.022.441a.428.428 0 00.144.317.502.502 0 00.303.109c.121.006.257.013.408.013h1.065c.107 0 .216 0 .326.008.102.01.206 0 .305-.03a.394.394 0 00.306-.185c.06-.075.09-.17.083-.265v-6.764c.014-.151.02-.3.02-.45v-.448c0-.108.009-.274 0-.375-.006-.101.004-.143 0-.24-.004-.136 0-.198 0-.293 0-.096.046-.258.165-.242.037 0 .072.013.1.038.03.019.059.042.085.068.093.146.168.304.223.469.01.029.023.057.037.084l2.684 7.691.008-.004c.031.104.068.206.11.305.058.123.099.23.147.314.048.1.126.182.223.236a.502.502 0 00.242.083c.12.014.24.02.36.019.127 0 .259 0 .388-.011.128-.008.24-.008.336-.008h.474c.084.004.168.002.251-.007.082 0 .16-.027.225-.076a.383.383 0 00.123-.188c.033-.075.059-.112.09-.198l.09-.218 2.81-8.167.005-.014a1.17 1.17 0 01.095-.217c.038-.073.072-.115.12-.203a.612.612 0 01.04-.067.255.255 0 01.165-.074c.084.027.094.04.113.145.017.142.022.285.017.428-.008.124.019.228.012.341-.008.12-.008.23-.008.339v.523c0 .168.003.353.02.538v6.643a.383.383 0 00.081.265c.04.075.11.128.193.143.076.017.168.037.274.064h1.537c.145 0 .284-.007.408-.013a.52.52 0 00.305-.11.406.406 0 00.13-.316c.01-.145.014-.291.014-.44V62.233a.484.484 0 00-.226-.462zM216.38 66.175a.414.414 0 00-.152-.335.515.515 0 00-.298-.115 7.04 7.04 0 00-.396-.008h-1.042c-.125 0-.247.001-.362.008a.64.64 0 00-.295.094.453.453 0 00-.113.192c-.01.046-.01.073-.016.133-.039.243-.124.439-.303.461a.302.302 0 01-.266-.12.984.984 0 01-.139-.115 2.546 2.546 0 00-.225-.202 3.11 3.11 0 01-.143-.116c-.042-.033-.082-.061-.124-.093a2.978 2.978 0 00-.582-.29 2.152 2.152 0 00-.805-.205 3.618 3.618 0 00-.589-.036h-.054c-.14 0-.279.004-.409.014l-.03.001a2.586 2.586 0 00-1.002.222c-.122.04-.24.087-.345.132a4.073 4.073 0 00-.556.287c-.065.041-.138.087-.204.132-.068.047-.139.101-.204.154l-.12.121a2.785 2.785 0 00-.214.188.872.872 0 00-.18.202c-.093.125-.186.242-.274.356-.089.12-.168.247-.236.38-.136.22-.247.453-.333.696-.03.08-.06.166-.088.25-.172.438-.278.9-.312 1.369a.36.36 0 00-.01.115v.004a9.41 9.41 0 00-.03.513v.227a5.905 5.905 0 00.368 2.274c.011.028.028.062.041.089a5.49 5.49 0 00.908 1.503 3.57 3.57 0 001.42.97c.157.071.322.122.492.152.173.036.36.072.553.115.05.014.1.02.151.02.045 0 .089.006.132.017h.161c.109.021.22.03.33.025.11.005.219-.004.326-.025.068-.01.14-.022.219-.028.067-.007.155-.018.231-.03.163-.041.32-.085.47-.123.154-.041.303-.096.446-.164.144-.061.282-.136.41-.224.125-.081.245-.17.368-.268.043-.03.084-.062.122-.098.03-.03.063-.059.097-.085a.301.301 0 01.138-.07c.08-.033.17-.03.246.01.143.082.164.25.143.502 0 .025-.006.083-.006.114a1.036 1.036 0 00-.011.159c0 .15-.037.277-.044.42a2.653 2.653 0 01-.052.4c-.024.095-.046.18-.06.265a2.07 2.07 0 01-.058.244 2.65 2.65 0 01-.472.715c-.12.13-.26.242-.413.333-.072.051-.15.094-.233.127l-.065.033a.522.522 0 01-.126.038 3.197 3.197 0 01-.571.117c-.331.04-.666.026-.992-.044a1.566 1.566 0 01-.486-.175.967.967 0 01-.185-.105 2.294 2.294 0 01-.26-.203l-.007-.01a1.45 1.45 0 01-.216-.264l-.044-.05a5.649 5.649 0 01-.242-.357.655.655 0 00-.412-.214c-.068 0-.123-.008-.172-.012a.897.897 0 00-.174-.012h-.692c-.154 0-.316-.002-.483-.008a1.718 1.718 0 00-.458.032.513.513 0 00-.316.172.426.426 0 00-.054.399.23.23 0 01.018.1.213.213 0 00.047.124c.165.523.477.988.898 1.339.42.34.887.618 1.386.825.123.057.251.103.383.137.128.028.258.062.396.091a.31.31 0 00.07.022c.435.092.878.138 1.323.138.025.004.05.006.075.005h.078c.466.004.93-.037 1.388-.124.147-.016.293-.043.436-.08.165-.044.322-.085.471-.127.156-.04.307-.096.452-.164a4.262 4.262 0 001.315-.836c.378-.367.68-.805.89-1.289.068-.153.12-.313.155-.477.034-.183.077-.364.13-.542.015-.11.026-.209.032-.297.005-.089.018-.189.028-.295 0-.108.002-.214.012-.319a6.67 6.67 0 00.007-.316v-8.727c0-.164-.002-.323-.007-.48zm-2.729 4.905a3.728 3.728 0 01-.082.604c-.031.16-.08.316-.143.466a3.02 3.02 0 01-.52.883c-.225.255-.51.45-.828.57a.964.964 0 01-.325.103l-.013.003a2.122 2.122 0 01-.309.053.243.243 0 00-.027.006h-.03c-.064.004-.13.009-.196.009a.219.219 0 01-.1.002.17.17 0 01-.037-.007 1.79 1.79 0 01-.267-.026h-.042c-.03-.006-.054-.013-.076-.019a1.817 1.817 0 01-.354-.118c-.05-.023-.101-.043-.147-.068a1.944 1.944 0 01-.735-.643 3.931 3.931 0 01-.444-.931c-.02-.064-.031-.127-.045-.19a3.774 3.774 0 01-.075-.418c-.004-.009-.004-.016-.008-.024v-.02a4.933 4.933 0 01-.03-.384 3.117 3.117 0 01-.007-.495c.005-.168.02-.336.047-.502a2.11 2.11 0 01.053-.304v-.01a.409.409 0 01.044-.164v-.004c.038-.16.097-.314.174-.459.087-.185.184-.365.291-.539a1.76 1.76 0 01.819-.673l.063-.021c.267-.124.56-.185.854-.177.214-.001.428.028.634.086.273.048.532.156.758.316.374.28.659.664.818 1.104.04.086.074.174.104.264.025.095.056.192.08.285a.53.53 0 01.014.095c.014.07.024.142.035.215.04.167.06.337.06.508a5.64 5.64 0 01-.008.624zM244.464 70.127a4.905 4.905 0 00-.163-.764 5.669 5.669 0 00-.353-1.005 2.491 2.491 0 00-.156-.332c-.013-.022-.028-.04-.038-.06a6.002 6.002 0 00-.545-.84.202.202 0 01-.028-.042l-.008-.002a2.786 2.786 0 00-.428-.43 4.094 4.094 0 00-.423-.323 5.561 5.561 0 00-1.343-.664l-.01-.002a4.557 4.557 0 00-1.59-.235c-.012 0-.026.003-.04.003h-.15l-.004.001c-.13.004-.25.01-.37.018-.079.003-.157.012-.235.025a3.95 3.95 0 00-.634.13 2.984 2.984 0 00-.572.171 5.351 5.351 0 00-2.982 3.006c-.055.127-.1.257-.136.39-.138.437-.221.89-.247 1.349l-.008.038v.034a4.434 4.434 0 00-.011.31.594.594 0 00-.002.067v.078c-.02.736.11 1.468.38 2.153.039.137.088.272.147.402.206.464.488.89.835 1.26.347.365.74.683 1.166.949.113.07.233.128.358.173.117.042.57.23.77.291a4.106 4.106 0 00.604.146c.214.045.432.069.651.072.122.008.246.014.372.014h.14a6.119 6.119 0 002.288-.452c.308-.105.596-.264.848-.47a4.273 4.273 0 001.021-1.083c.104-.144.2-.294.286-.45.088-.164.163-.335.224-.512a.589.589 0 00.03-.243.25.25 0 00-.02-.097.235.235 0 00-.217-.216h-.45a.458.458 0 00-.129-.005.295.295 0 00-.052.005h-.677c-.035-.004-.073-.004-.11-.005-.059 0-.117 0-.172.005h-.128a.699.699 0 00-.443.24c-.046.055-.103.128-.147.18-.076.093-.12.143-.2.232a1.141 1.141 0 01-.298.233 5.682 5.682 0 01-.463.262l-.006.006c-.19.09-.394.15-.603.18-.033.004-.07.019-.105.022h-.056a4.87 4.87 0 01-.275.019c-.115.009-.23.009-.344 0h-.009a2.569 2.569 0 01-1.005-.216c-.045-.02-.084-.044-.128-.069a2.103 2.103 0 01-.644-.564 2.78 2.78 0 01-.415-.795c-.006-.01-.03-.075-.035-.088a1.54 1.54 0 01-.046-.26c-.002-.056-.008-.105-.008-.152a.373.373 0 01.008-.15.27.27 0 01.066-.156.103.103 0 01.032-.042.421.421 0 01.202-.165.694.694 0 01.236-.041h5.263c.12 0 .26.004.417.01.157.01.314.01.47 0 .143-.004.286-.017.428-.04a.601.601 0 00.295-.11.375.375 0 00.145-.267c.026-.17.036-.342.03-.514a2.415 2.415 0 00-.051-.613zm-3.045-.446a.464.464 0 01-.414.172c-.216.008-.416.012-.604.012h-2.823a.832.832 0 01-.447-.101.357.357 0 01-.134-.207.63.63 0 01-.01-.253c.014-.091.038-.18.073-.266.025-.075.055-.147.09-.218.267-.543.749-.95 1.33-1.122.074-.03.15-.054.23-.07.116-.027.233-.048.351-.062.512-.066 1.03.05 1.464.328.31.225.567.513.756.846.037.094.096.24.17.442.079.16.066.35-.032.499z" fill="#A7A8AA"/><path d="M257.325 57.024a12.127 12.127 0 1012.124 12.127c-.001-6.696-5.428-12.124-12.124-12.127zm-4.163 19.143a.575.575 0 01-.364.224.667.667 0 01-.309.018 3.345 3.345 0 00-.326-.018h-1.208c-.14.001-.28-.006-.418-.02a.538.538 0 01-.314-.123.495.495 0 01-.124-.303 6.128 6.128 0 01-.018-.432V63.291c0-.189 0-.413-.013-.67a1.084 1.084 0 01.095-.552.566.566 0 01.265-.206.424.424 0 00.11-.012.464.464 0 01.094-.009h1.755c.154 0 .294.002.43.009a.39.39 0 01.306.153.673.673 0 01.113.367c.007.153.01.315.01.493v12.214c0 .182.002.378.01.6a.858.858 0 01-.094.489zm11.98-6.152v5.129c0 .26-.002.511-.008.747a.455.455 0 01-.295.458.968.968 0 01-.288.042h-1.435c-.146 0-.29-.01-.435-.028a.433.433 0 01-.297-.177.605.605 0 01-.093-.315 6.677 6.677 0 01-.01-.419v-4.475c0-.504-.021-.974-.064-1.402a2.287 2.287 0 00-.365-1.092 1.464 1.464 0 00-.674-.517 1.985 1.985 0 00-.838-.156 1.722 1.722 0 00-.92.21c-.13.051-.254.118-.368.2-.443.322-.725.82-.774 1.365a15.11 15.11 0 00-.128 2.022v4.172a.653.653 0 01-.059.305.417.417 0 01-.328.265c-.182.03-.367.044-.552.042h-1.02a4.208 4.208 0 01-.448-.02.43.43 0 01-.324-.144.792.792 0 01-.135-.529c.005-.231.01-.452.01-.654v-8.319c0-.15.003-.287.005-.408a.534.534 0 01.12-.31.249.249 0 01.13-.088c.064-.021.129-.039.194-.052h.102c.07-.012.141-.019.212-.018h1.075c.107 0 .215.002.315.008.095.003.19.021.278.054a.33.33 0 01.195.182c.028.07.028.15.052.24.057.237.12.493.297.516a.285.285 0 00.224-.092 1 1 0 00.145-.144c.113-.135.245-.253.391-.352a3.042 3.042 0 011.043-.501 1.5 1.5 0 01.39-.091c.05-.012.105-.02.162-.029a4.256 4.256 0 011.197-.054 3.933 3.933 0 011.48.346 2.95 2.95 0 011.287 1.142c.097.15.174.311.228.48.054.167.11.344.163.519.024.102.04.206.05.31.008.097.024.191.05.284a.418.418 0 00.022.162c.03.197.044.397.041.596v.59zM170.239 70.623c.032.137.045.278.04.419.003.14-.003.28-.02.42.001.056-.001.113-.007.17a.913.913 0 00-.013.175 1.226 1.226 0 00-.042.313c0 .108-.014.215-.041.32a1.543 1.543 0 01-.038.284 5.87 5.87 0 00-.113.501 2.328 2.328 0 01-.153.476 6.167 6.167 0 01-.918 1.595 3.792 3.792 0 01-1.447 1.056c-.123.055-.25.1-.381.132-.125.036-.264.07-.415.115a.796.796 0 01-.254.04 1.594 1.594 0 00-.26.019H166a.809.809 0 01-.328.03 1.204 1.204 0 01-.327-.048h-.122a1.792 1.792 0 00-.226-.032 2.039 2.039 0 01-.243-.03 15.699 15.699 0 01-.712-.205 2.525 2.525 0 01-.615-.285c-.078-.055-.158-.106-.231-.163a1.922 1.922 0 01-.216-.184 1.992 1.992 0 01-.12-.083.629.629 0 00-.126-.06c-.12-.041-.196-.014-.223.083a.818.818 0 00-.13.336.49.49 0 01-.155.297.587.587 0 01-.287.09c-.107.006-.23.01-.365.01h-.98c-.094 0-.195.003-.295.009a.73.73 0 01-.274-.029.43.43 0 01-.316-.377 5.694 5.694 0 01-.032-.621V62.489a.65.65 0 01.1-.386.399.399 0 01.289-.185.144.144 0 01.09-.01c.031.007.063.004.09-.01h1.289c.21-.002.419.008.627.03a.393.393 0 01.349.316c.044.177.06.36.043.541a7.897 7.897 0 00-.021.58v2.67c-.004.132.01.262.04.39.012.068.03.127.04.174.015.046.054.08.101.09.031.027.072.04.112.037a.236.236 0 00.114-.018 2.32 2.32 0 00.265-.172l.265-.193c.175-.12.36-.226.551-.317.205-.093.416-.172.632-.235.104-.04.213-.064.325-.071.11-.005.22-.023.327-.053.1-.028.203-.041.306-.04h.529a.344.344 0 00.144.01.432.432 0 01.161.013c.15.039.29.07.42.09.13.024.256.061.377.111a4.497 4.497 0 011.528 1.001c.42.447.758.964 1.001 1.527.068.168.126.339.174.513.048.175.095.359.154.551.025.09.041.18.05.272.007.1.023.2.05.298a.521.521 0 01.03.223.833.833 0 00.01.247v.14zm-3.02 1.915c.05-.166.088-.336.112-.508.034-.205.055-.412.062-.62.007-.211.007-.42 0-.633a2.33 2.33 0 00-.07-.54 1.862 1.862 0 01-.082-.39.947.947 0 00-.104-.344 3.376 3.376 0 00-.803-1.213 2.108 2.108 0 00-1.52-.499.945.945 0 00-.141.01.894.894 0 01-.143.012c-.097.024-.187.046-.263.068-.084.023-.164.046-.247.074-.367.15-.68.409-.897.74-.214.343-.385.71-.51 1.095-.042.107-.066.22-.072.335a1.857 1.857 0 01-.052.337.857.857 0 00-.017.2.417.417 0 00-.012.166.515.515 0 01-.008.161c-.03.149-.04.301-.025.452.008.137.03.274.062.407.026.113.044.228.052.343.007.113.031.223.072.329.106.346.254.678.44.99.181.287.428.529.72.704.209.13.436.226.675.285.031 0 .063.004.094.012a.55.55 0 00.11.01c.067.014.135.024.204.03a.993.993 0 00.246-.014c.134-.026.26-.052.374-.071.116-.018.23-.048.34-.09.356-.16.663-.414.884-.737.225-.34.4-.711.52-1.101zM170.66 65.851h1.955a.734.734 0 01.35.082.842.842 0 01.335.512c.062.232.124.442.193.632.07.166.128.337.173.511.051.173.107.345.172.506.108.316.215.621.308.93.095.305.198.607.306.91l.43 1.278c.037.125.074.252.11.382.034.129.08.254.134.375.036.109.083.233.133.367.034.128.163.209.294.184a.346.346 0 01.069-.055.124.124 0 00.071-.044c.041-.066.076-.135.104-.207.03-.067.056-.136.085-.203.068-.154.121-.315.16-.479.043-.171.087-.337.141-.5.194-.57.378-1.135.555-1.693.175-.56.356-1.12.547-1.694.068-.183.126-.37.173-.56.048-.182.105-.362.173-.538.043-.11.079-.214.116-.319a.478.478 0 01.193-.254.497.497 0 01.303-.111c.124-.003.262-.012.407-.012h1.244c.138 0 .262.012.391.022a.478.478 0 01.286.123c.081.105.096.246.04.366a3.26 3.26 0 01-.103.327c-.042.107-.08.221-.123.326-.189.474-.376.961-.551 1.46-.176.495-.356.983-.55 1.458-.085.2-.156.408-.223.617-.07.213-.145.42-.223.624-.07.189-.14.373-.204.551-.07.177-.138.36-.208.551-.27.679-.522 1.361-.766 2.048a36.872 36.872 0 01-.761 2.027 1.341 1.341 0 00-.089.269 1.276 1.276 0 01-.096.242c-.107.259-.211.51-.302.754a9.951 9.951 0 01-.307.704c-.107.22-.237.43-.387.623-.16.196-.347.367-.556.508a2.26 2.26 0 01-.579.296 9.867 9.867 0 01-.683.217 1.356 1.356 0 01-.33.038c-.108 0-.217.015-.322.042h-.917c-.147 0-.293-.008-.439-.022-.139-.014-.273-.026-.387-.048a.619.619 0 01-.254-.096.355.355 0 01-.128-.191 3.886 3.886 0 01-.077-.275v-1.224c0-.259.082-.423.247-.487a.793.793 0 01.274-.055c.1-.008.201.004.297.034h.75a.528.528 0 01.168-.022.336.336 0 00.162-.042c.404-.106.717-.426.815-.832a1.08 1.08 0 00.079-.247.461.461 0 000-.284.716.716 0 01-.039-.206.581.581 0 00-.04-.202 19.2 19.2 0 00-.266-.809c-.09-.262-.2-.525-.304-.78a13.26 13.26 0 01-.297-.778 12.411 12.411 0 00-.294-.774 4.69 4.69 0 01-.175-.49 4.44 4.44 0 00-.172-.489 23.687 23.687 0 01-.602-1.592 21.505 21.505 0 00-.603-1.588.375.375 0 01-.04-.131.184.184 0 00-.04-.116 5.881 5.881 0 01-.276-.746 5.978 5.978 0 00-.273-.72c-.032-.083-.072-.199-.13-.356a.558.558 0 01-.034-.399.322.322 0 01.263-.204.15.15 0 01.072-.01.08.08 0 00.072-.012z" fill="#A7A8AA"/></g><path d="M395.97 51.871V37.075h17.542v14.796h4.402v-32.52h-4.402v14.502h-17.543V19.35h-4.402v32.52h4.402zm36.355.363c1.603 0 3.025-.336 4.266-1.01a12.646 12.646 0 003.359-2.666l.317 2.474c.152.56.515.84 1.09.84h2.405v-22.99h-4.04v16.93c-.877.999-1.834 1.782-2.87 2.349a6.861 6.861 0 01-3.347.85c-1.634 0-2.848-.476-3.643-1.429-.794-.953-1.191-2.3-1.191-4.04v-14.66h-4.04v14.66c0 1.302.163 2.49.488 3.564.326 1.074.814 1.99 1.464 2.746A6.591 6.591 0 00429 51.61c.96.416 2.069.624 3.325.624zm28.23-.045c1.529 0 2.905-.299 4.13-.896a8.909 8.909 0 003.121-2.52c.855-1.081 1.51-2.386 1.963-3.914.454-1.528.681-3.223.681-5.083 0-1.74-.2-3.306-.601-4.698-.401-1.392-.98-2.576-1.736-3.552a7.561 7.561 0 00-2.758-2.235c-1.081-.514-2.296-.772-3.642-.772-1.589 0-2.992.333-4.21.999-1.218.666-2.31 1.558-3.279 2.678V18.443h-4.062v33.428h2.61c.575 0 .922-.287 1.044-.862l.204-2.088c.771 1.044 1.675 1.85 2.712 2.417 1.036.567 2.31.851 3.824.851zm-.975-3.132c-1.06 0-2.031-.204-2.916-.612-.885-.409-1.699-1.112-2.44-2.111v-11.12c.832-1.104 1.736-1.96 2.712-2.564.976-.605 2.122-.908 3.438-.908 1.891 0 3.347.662 4.369 1.986 1.02 1.323 1.531 3.392 1.531 6.206 0 3.026-.575 5.303-1.724 6.831-1.15 1.528-2.807 2.292-4.97 2.292z" fill="#53565A" fill-rule="nonzero"/><path stroke="#BCBCBC" stroke-width="1.621" d="M361.073.414V73.34"/></g></svg>